<?xml version="1.0" encoding="utf-8"?>
<!-- Generator: Adobe Illustrator 24.1.0, SVG Export Plug-In . SVG Version: 6.00 Build 0)  -->
<svg version="1.1" id="Capa_1" xmlns="http://www.w3.org/2000/svg" xmlns:xlink="http://www.w3.org/1999/xlink" x="0px" y="0px"
	 viewBox="0 0 16 16" style="enable-background:new 0 0 16 16;" xml:space="preserve">
<path d="M14.4,1.4c0.3,0,0.5,0.3,0.5,0.7v12c0,0.4-0.2,0.7-0.5,0.7h-13c-0.3,0-0.5-0.3-0.5-0.7V2c0-0.4,0.2-0.7,0.5-0.7H14.4z
	 M1.4,0.1c-0.8,0-1.5,0.9-1.5,2v12c0,1.1,0.7,2,1.5,2h13c0.8,0,1.5-0.9,1.5-2V2c0-1.1-0.7-2-1.5-2H1.4z"/>
<path d="M5,10.5C5,10.2,5.2,10,5.5,10h7c0.3,0,0.5,0.2,0.5,0.5c0,0.3-0.2,0.5-0.5,0.5h-7C5.2,11,5,10.8,5,10.5 M5,8
	c0-0.3,0.2-0.5,0.5-0.5h7C12.8,7.5,13,7.7,13,8c0,0.3-0.2,0.5-0.5,0.5h-7C5.2,8.5,5,8.3,5,8 M5,13c0-0.3,0.2-0.5,0.5-0.5h7
	c0.3,0,0.5,0.2,0.5,0.5s-0.2,0.5-0.5,0.5h-7C5.2,13.5,5,13.3,5,13 M4,8c0,0.3-0.2,0.5-0.5,0.5S3,8.3,3,8c0-0.3,0.2-0.5,0.5-0.5
	S4,7.7,4,8 M4,10.5C4,10.8,3.8,11,3.5,11S3,10.8,3,10.5C3,10.2,3.2,10,3.5,10S4,10.2,4,10.5 M4,13c0,0.3-0.2,0.5-0.5,0.5
	S3,13.3,3,13s0.2-0.5,0.5-0.5S4,12.7,4,13"/>
<path d="M6.4,4.5c0,1,0.8,1.8,1.8,1.8S10,5.5,10,4.5S9.2,2.6,8.2,2.6S6.4,3.5,6.4,4.5 M10.3,4.5c0,1.2-0.9,2.1-2.1,2.1
	S6.1,5.6,6.1,4.5s0.9-2.1,2.1-2.1S10.3,3.3,10.3,4.5 M7.6,3.4h0.8c0.4,0,0.7,0.3,0.7,0.6c0,0.3-0.2,0.5-0.4,0.6l0.4,0.9H8.7L8.4,4.7
	H7.9v0.8H7.6V3.4z M7.9,3.7v0.7h0.4c0.3,0,0.4-0.1,0.4-0.4c0-0.2-0.2-0.4-0.4-0.4H7.9z"/>
</svg>
