<?xml version="1.0" encoding="utf-8"?>
<!-- Generator: Adobe Illustrator 24.1.0, SVG Export Plug-In . SVG Version: 6.00 Build 0)  -->
<svg version="1.1" id="Capa_1" xmlns="http://www.w3.org/2000/svg" xmlns:xlink="http://www.w3.org/1999/xlink" x="0px" y="0px"
	 viewBox="0 0 16 16" style="enable-background:new 0 0 16 16;" xml:space="preserve">
<path d="M11.5,4C11.8,4,12,4.2,12,4.5V5h1c0.5,0,0.9,0.2,1.2,0.6l1.5,1.8C15.9,7.7,16,8,16,8.4v2.1c0,0.8-0.7,1.5-1.5,1.5H14
	c0,1.1-0.9,2-2,2s-2-0.9-2-2H5c0,1.1-0.9,2-2,2s-2-0.9-2-2c-0.6,0-1-0.4-1-1v-1h11V4.5C11,4.2,11.2,4,11.5,4 M3,11c-0.6,0-1,0.4-1,1
	s0.4,1,1,1s1-0.4,1-1S3.6,11,3,11 M12,11c-0.6,0-1,0.4-1,1s0.4,1,1,1s1-0.4,1-1S12.6,11,12,11 M13.7,11h0.8c0.3,0,0.5-0.2,0.5-0.5
	V8.4c0-0.1,0-0.2-0.1-0.3l-1.5-1.8C13.3,6.1,13.2,6,13,6h-1v4C12.7,10,13.4,10.4,13.7,11"/>
<path d="M0,0.9c0-0.3,0.3-0.6,0.7-0.6h9.5c0.4,0,0.7,0.3,0.7,0.6v8.3c0,0.3-0.3,0.6-0.7,0.6H0.7C0.3,9.8,0,9.6,0,9.2V0.9z M2.7,0.9
	v3.6h5.4V0.9H2.7z M8.1,5.7H2.7v3.6h5.4V5.7z M0.7,0.9v1.2H2V0.9H0.7z M2,2.7H0.7v1.2H2V2.7z M0.7,4.5v1.2H2V4.5H0.7z M2,6.3H0.7
	v1.2H2V6.3z M0.7,8v1.2H2V8H0.7z M10.2,0.9H8.8v1.2h1.4V0.9z M8.8,2.7v1.2h1.4V2.7H8.8z M10.2,4.5H8.8v1.2h1.4V4.5z M8.8,6.3v1.2
	h1.4V6.3H8.8z M10.2,8H8.8v1.2h1.4V8z"/>
</svg>
